<mxfile host="app.diagrams.net" agent="Mozilla/5.0 (Windows NT 10.0; Win64; x64) AppleWebKit/537.36 (KHTML, like Gecko) Chrome/140.0.0.0 Safari/537.36 Edg/140.0.0.0" version="28.2.0">
  <diagram name="第 1 页" id="kC6L_besgEOfmSUGlZIZ">
    <mxGraphModel dx="1945" dy="1365" grid="1" gridSize="10" guides="1" tooltips="1" connect="1" arrows="1" fold="1" page="1" pageScale="1" pageWidth="827" pageHeight="1169" math="0" shadow="0">
      <root>
        <mxCell id="0" />
        <mxCell id="1" parent="0" />
        <mxCell id="OOg317m0E7mB_uXNuo5s-32" value="" style="rounded=0;whiteSpace=wrap;html=1;" parent="1" vertex="1">
          <mxGeometry x="354" y="257.5" width="156" height="112.5" as="geometry" />
        </mxCell>
        <mxCell id="OOg317m0E7mB_uXNuo5s-24" value="" style="rounded=0;whiteSpace=wrap;html=1;" parent="1" vertex="1">
          <mxGeometry x="140" y="143.75" width="1282.5" height="330" as="geometry" />
        </mxCell>
        <mxCell id="OOg317m0E7mB_uXNuo5s-10" style="edgeStyle=orthogonalEdgeStyle;rounded=0;orthogonalLoop=1;jettySize=auto;html=1;exitX=1;exitY=0.5;exitDx=0;exitDy=0;entryX=0;entryY=0.5;entryDx=0;entryDy=0;" parent="1" source="OOg317m0E7mB_uXNuo5s-5" target="OOg317m0E7mB_uXNuo5s-8" edge="1">
          <mxGeometry relative="1" as="geometry" />
        </mxCell>
        <mxCell id="OOg317m0E7mB_uXNuo5s-5" value="" style="rounded=0;whiteSpace=wrap;html=1;" parent="1" vertex="1">
          <mxGeometry x="32.5" y="287.5" width="85" height="50" as="geometry" />
        </mxCell>
        <mxCell id="OOg317m0E7mB_uXNuo5s-1" value="&lt;font style=&quot;font-size: 11px;&quot;&gt;SPROXY&lt;/font&gt;" style="rounded=0;whiteSpace=wrap;html=1;" parent="1" vertex="1">
          <mxGeometry x="42.5" y="302.5" width="60" height="20" as="geometry" />
        </mxCell>
        <mxCell id="OOg317m0E7mB_uXNuo5s-2" value="请求：SAP-&amp;gt;XML-&amp;gt;JSON-&amp;gt;外围系统" style="rounded=0;whiteSpace=wrap;html=1;" parent="1" vertex="1">
          <mxGeometry x="10" y="30" width="1580" height="30" as="geometry" />
        </mxCell>
        <mxCell id="OOg317m0E7mB_uXNuo5s-7" value="SAP" style="text;html=1;align=center;verticalAlign=middle;resizable=0;points=[];autosize=1;strokeColor=none;fillColor=none;" parent="1" vertex="1">
          <mxGeometry x="47.5" y="257.5" width="50" height="30" as="geometry" />
        </mxCell>
        <mxCell id="OOg317m0E7mB_uXNuo5s-8" value="&lt;font style=&quot;font-size: 11px;&quot;&gt;CC_SAP_PROXY_SEND&lt;/font&gt;&lt;div&gt;&lt;font style=&quot;font-size: 11px;&quot;&gt;AT_SOAP&lt;/font&gt;&lt;/div&gt;" style="rounded=0;whiteSpace=wrap;html=1;" parent="1" vertex="1">
          <mxGeometry x="157.5" y="275" width="130" height="75" as="geometry" />
        </mxCell>
        <mxCell id="OOg317m0E7mB_uXNuo5s-9" value="BS SAP" style="text;html=1;align=center;verticalAlign=middle;resizable=0;points=[];autosize=1;strokeColor=none;fillColor=none;" parent="1" vertex="1">
          <mxGeometry x="187.5" y="245" width="70" height="30" as="geometry" />
        </mxCell>
        <mxCell id="OOg317m0E7mB_uXNuo5s-13" value="" style="rounded=0;whiteSpace=wrap;html=1;" parent="1" vertex="1">
          <mxGeometry x="335" y="213.75" width="765" height="200" as="geometry" />
        </mxCell>
        <mxCell id="OOg317m0E7mB_uXNuo5s-14" value="OM" style="text;html=1;align=center;verticalAlign=middle;resizable=0;points=[];autosize=1;strokeColor=none;fillColor=none;" parent="1" vertex="1">
          <mxGeometry x="700" y="185" width="40" height="30" as="geometry" />
        </mxCell>
        <mxCell id="OOg317m0E7mB_uXNuo5s-22" style="edgeStyle=orthogonalEdgeStyle;rounded=0;orthogonalLoop=1;jettySize=auto;html=1;exitX=1;exitY=0.5;exitDx=0;exitDy=0;entryX=0;entryY=0.5;entryDx=0;entryDy=0;" parent="1" source="OOg317m0E7mB_uXNuo5s-18" target="OOg317m0E7mB_uXNuo5s-21" edge="1">
          <mxGeometry relative="1" as="geometry" />
        </mxCell>
        <mxCell id="OOg317m0E7mB_uXNuo5s-18" value="&lt;span style=&quot;font-size: 11px;&quot;&gt;CC_外围系统_REST_RECV&lt;/span&gt;&lt;div&gt;&lt;span style=&quot;font-size: 11px;&quot;&gt;AT_REST&lt;/span&gt;&lt;/div&gt;" style="rounded=0;whiteSpace=wrap;html=1;" parent="1" vertex="1">
          <mxGeometry x="1190" y="277.5" width="162.5" height="75" as="geometry" />
        </mxCell>
        <mxCell id="OOg317m0E7mB_uXNuo5s-19" value="BC 外围系统" style="text;html=1;align=center;verticalAlign=middle;resizable=0;points=[];autosize=1;strokeColor=none;fillColor=none;" parent="1" vertex="1">
          <mxGeometry x="1226.25" y="245" width="90" height="30" as="geometry" />
        </mxCell>
        <mxCell id="OOg317m0E7mB_uXNuo5s-21" value="外围系统" style="rounded=0;whiteSpace=wrap;html=1;" parent="1" vertex="1">
          <mxGeometry x="1490" y="285" width="120" height="60" as="geometry" />
        </mxCell>
        <mxCell id="OOg317m0E7mB_uXNuo5s-25" value="IC" style="text;html=1;align=center;verticalAlign=middle;resizable=0;points=[];autosize=1;strokeColor=none;fillColor=none;" parent="1" vertex="1">
          <mxGeometry x="710" y="120" width="40" height="30" as="geometry" />
        </mxCell>
        <mxCell id="OOg317m0E7mB_uXNuo5s-26" value="PO" style="text;html=1;align=center;verticalAlign=middle;resizable=0;points=[];autosize=1;strokeColor=none;fillColor=none;" parent="1" vertex="1">
          <mxGeometry x="710" y="90" width="40" height="30" as="geometry" />
        </mxCell>
        <mxCell id="OOg317m0E7mB_uXNuo5s-33" value="" style="rounded=0;whiteSpace=wrap;html=1;" parent="1" vertex="1">
          <mxGeometry x="350" y="247.5" width="180" height="122.5" as="geometry" />
        </mxCell>
        <mxCell id="OOg317m0E7mB_uXNuo5s-28" value="MT_SAP_REQ" style="rounded=0;whiteSpace=wrap;html=1;" parent="1" vertex="1">
          <mxGeometry x="370" y="275" width="130" height="25" as="geometry" />
        </mxCell>
        <mxCell id="OOg317m0E7mB_uXNuo5s-29" value="MT_外围系统_RES" style="rounded=0;whiteSpace=wrap;html=1;" parent="1" vertex="1">
          <mxGeometry x="370" y="317.5" width="130" height="25" as="geometry" />
        </mxCell>
        <mxCell id="OOg317m0E7mB_uXNuo5s-36" value="SI_SAP_OUT" style="text;html=1;align=center;verticalAlign=middle;resizable=0;points=[];autosize=1;strokeColor=none;fillColor=none;" parent="1" vertex="1">
          <mxGeometry x="385" y="215" width="100" height="30" as="geometry" />
        </mxCell>
        <mxCell id="OOg317m0E7mB_uXNuo5s-38" value="" style="rounded=0;whiteSpace=wrap;html=1;" parent="1" vertex="1">
          <mxGeometry x="910" y="247.5" width="176" height="122.5" as="geometry" />
        </mxCell>
        <mxCell id="OOg317m0E7mB_uXNuo5s-39" value="SI_SRM_IN" style="text;html=1;align=center;verticalAlign=middle;resizable=0;points=[];autosize=1;strokeColor=none;fillColor=none;" parent="1" vertex="1">
          <mxGeometry x="953" y="217.5" width="90" height="30" as="geometry" />
        </mxCell>
        <mxCell id="OOg317m0E7mB_uXNuo5s-53" style="edgeStyle=orthogonalEdgeStyle;rounded=0;orthogonalLoop=1;jettySize=auto;html=1;exitX=1;exitY=0.5;exitDx=0;exitDy=0;entryX=0;entryY=0.5;entryDx=0;entryDy=0;" parent="1" source="OOg317m0E7mB_uXNuo5s-42" target="OOg317m0E7mB_uXNuo5s-18" edge="1">
          <mxGeometry relative="1" as="geometry" />
        </mxCell>
        <mxCell id="OOg317m0E7mB_uXNuo5s-42" value="MT_SAP_REQ" style="rounded=0;whiteSpace=wrap;html=1;" parent="1" vertex="1">
          <mxGeometry x="933" y="275" width="130" height="25" as="geometry" />
        </mxCell>
        <mxCell id="OOg317m0E7mB_uXNuo5s-44" value="MT_外围系统_RES" style="rounded=0;whiteSpace=wrap;html=1;" parent="1" vertex="1">
          <mxGeometry x="933" y="312.5" width="130" height="25" as="geometry" />
        </mxCell>
        <mxCell id="OOg317m0E7mB_uXNuo5s-45" value="" style="rounded=0;whiteSpace=wrap;html=1;" parent="1" vertex="1">
          <mxGeometry x="572.5" y="252.5" width="290" height="120" as="geometry" />
        </mxCell>
        <mxCell id="OOg317m0E7mB_uXNuo5s-46" value="MM字段映射" style="text;html=1;align=center;verticalAlign=middle;resizable=0;points=[];autosize=1;strokeColor=none;fillColor=none;" parent="1" vertex="1">
          <mxGeometry x="675" y="217.5" width="90" height="30" as="geometry" />
        </mxCell>
        <mxCell id="OOg317m0E7mB_uXNuo5s-54" style="edgeStyle=orthogonalEdgeStyle;rounded=0;orthogonalLoop=1;jettySize=auto;html=1;exitX=1;exitY=0.5;exitDx=0;exitDy=0;entryX=0;entryY=0.5;entryDx=0;entryDy=0;" parent="1" source="OOg317m0E7mB_uXNuo5s-8" target="OOg317m0E7mB_uXNuo5s-28" edge="1">
          <mxGeometry relative="1" as="geometry">
            <Array as="points">
              <mxPoint x="320" y="312" />
              <mxPoint x="320" y="288" />
            </Array>
          </mxGeometry>
        </mxCell>
        <mxCell id="OOg317m0E7mB_uXNuo5s-55" value="XML" style="text;html=1;align=center;verticalAlign=middle;whiteSpace=wrap;rounded=0;" parent="1" vertex="1">
          <mxGeometry x="1130" y="288" width="60" height="30" as="geometry" />
        </mxCell>
        <mxCell id="OOg317m0E7mB_uXNuo5s-56" value="JSON" style="text;html=1;align=center;verticalAlign=middle;resizable=0;points=[];autosize=1;strokeColor=none;fillColor=none;" parent="1" vertex="1">
          <mxGeometry x="1365" y="287.5" width="60" height="30" as="geometry" />
        </mxCell>
        <mxCell id="OOg317m0E7mB_uXNuo5s-57" value="" style="rounded=0;whiteSpace=wrap;html=1;" parent="1" vertex="1">
          <mxGeometry x="354" y="807.5" width="156" height="112.5" as="geometry" />
        </mxCell>
        <mxCell id="OOg317m0E7mB_uXNuo5s-58" value="" style="rounded=0;whiteSpace=wrap;html=1;" parent="1" vertex="1">
          <mxGeometry x="140" y="693.75" width="1282.5" height="330" as="geometry" />
        </mxCell>
        <mxCell id="OOg317m0E7mB_uXNuo5s-60" value="" style="rounded=0;whiteSpace=wrap;html=1;" parent="1" vertex="1">
          <mxGeometry x="32.5" y="837.5" width="85" height="50" as="geometry" />
        </mxCell>
        <mxCell id="OOg317m0E7mB_uXNuo5s-61" value="&lt;font style=&quot;font-size: 11px;&quot;&gt;SPROXY&lt;/font&gt;" style="rounded=0;whiteSpace=wrap;html=1;" parent="1" vertex="1">
          <mxGeometry x="42.5" y="852.5" width="60" height="20" as="geometry" />
        </mxCell>
        <mxCell id="OOg317m0E7mB_uXNuo5s-62" value="响应：外围系统-&amp;gt;JSON-&amp;gt;XML-&amp;gt;SAP" style="rounded=0;whiteSpace=wrap;html=1;" parent="1" vertex="1">
          <mxGeometry x="10" y="580" width="1580" height="30" as="geometry" />
        </mxCell>
        <mxCell id="OOg317m0E7mB_uXNuo5s-63" value="SAP" style="text;html=1;align=center;verticalAlign=middle;resizable=0;points=[];autosize=1;strokeColor=none;fillColor=none;" parent="1" vertex="1">
          <mxGeometry x="47.5" y="807.5" width="50" height="30" as="geometry" />
        </mxCell>
        <mxCell id="OOg317m0E7mB_uXNuo5s-103" style="edgeStyle=orthogonalEdgeStyle;rounded=0;orthogonalLoop=1;jettySize=auto;html=1;exitX=0;exitY=0.5;exitDx=0;exitDy=0;" parent="1" source="OOg317m0E7mB_uXNuo5s-64" edge="1">
          <mxGeometry relative="1" as="geometry">
            <mxPoint x="120" y="862.0588235294117" as="targetPoint" />
          </mxGeometry>
        </mxCell>
        <mxCell id="OOg317m0E7mB_uXNuo5s-64" value="&lt;font style=&quot;font-size: 11px;&quot;&gt;CC_SAP_PROXY_SEND&lt;/font&gt;&lt;div&gt;&lt;font style=&quot;font-size: 11px;&quot;&gt;AT_SOAP&lt;/font&gt;&lt;/div&gt;" style="rounded=0;whiteSpace=wrap;html=1;" parent="1" vertex="1">
          <mxGeometry x="157.5" y="825" width="130" height="75" as="geometry" />
        </mxCell>
        <mxCell id="OOg317m0E7mB_uXNuo5s-65" value="BS SAP" style="text;html=1;align=center;verticalAlign=middle;resizable=0;points=[];autosize=1;strokeColor=none;fillColor=none;" parent="1" vertex="1">
          <mxGeometry x="187.5" y="795" width="70" height="30" as="geometry" />
        </mxCell>
        <mxCell id="OOg317m0E7mB_uXNuo5s-66" value="" style="rounded=0;whiteSpace=wrap;html=1;" parent="1" vertex="1">
          <mxGeometry x="335" y="763.75" width="765" height="200" as="geometry" />
        </mxCell>
        <mxCell id="OOg317m0E7mB_uXNuo5s-67" value="OM" style="text;html=1;align=center;verticalAlign=middle;resizable=0;points=[];autosize=1;strokeColor=none;fillColor=none;" parent="1" vertex="1">
          <mxGeometry x="700" y="735" width="40" height="30" as="geometry" />
        </mxCell>
        <mxCell id="OOg317m0E7mB_uXNuo5s-69" value="&lt;span style=&quot;font-size: 11px;&quot;&gt;CC_外围系统_REST_RECV&lt;/span&gt;&lt;div&gt;&lt;span style=&quot;font-size: 11px;&quot;&gt;AT_REST&lt;/span&gt;&lt;/div&gt;" style="rounded=0;whiteSpace=wrap;html=1;" parent="1" vertex="1">
          <mxGeometry x="1190" y="827.5" width="162.5" height="75" as="geometry" />
        </mxCell>
        <mxCell id="OOg317m0E7mB_uXNuo5s-70" value="BC 外围系统" style="text;html=1;align=center;verticalAlign=middle;resizable=0;points=[];autosize=1;strokeColor=none;fillColor=none;" parent="1" vertex="1">
          <mxGeometry x="1226.25" y="795" width="90" height="30" as="geometry" />
        </mxCell>
        <mxCell id="OOg317m0E7mB_uXNuo5s-90" style="edgeStyle=orthogonalEdgeStyle;rounded=0;orthogonalLoop=1;jettySize=auto;html=1;exitX=0;exitY=0.5;exitDx=0;exitDy=0;entryX=1;entryY=0.5;entryDx=0;entryDy=0;" parent="1" source="OOg317m0E7mB_uXNuo5s-71" target="OOg317m0E7mB_uXNuo5s-69" edge="1">
          <mxGeometry relative="1" as="geometry" />
        </mxCell>
        <mxCell id="OOg317m0E7mB_uXNuo5s-71" value="外围系统" style="rounded=0;whiteSpace=wrap;html=1;" parent="1" vertex="1">
          <mxGeometry x="1490" y="835" width="120" height="60" as="geometry" />
        </mxCell>
        <mxCell id="OOg317m0E7mB_uXNuo5s-72" value="IC" style="text;html=1;align=center;verticalAlign=middle;resizable=0;points=[];autosize=1;strokeColor=none;fillColor=none;" parent="1" vertex="1">
          <mxGeometry x="710" y="670" width="40" height="30" as="geometry" />
        </mxCell>
        <mxCell id="OOg317m0E7mB_uXNuo5s-73" value="PO" style="text;html=1;align=center;verticalAlign=middle;resizable=0;points=[];autosize=1;strokeColor=none;fillColor=none;" parent="1" vertex="1">
          <mxGeometry x="710" y="640" width="40" height="30" as="geometry" />
        </mxCell>
        <mxCell id="OOg317m0E7mB_uXNuo5s-74" value="" style="rounded=0;whiteSpace=wrap;html=1;" parent="1" vertex="1">
          <mxGeometry x="350" y="797.5" width="180" height="122.5" as="geometry" />
        </mxCell>
        <mxCell id="OOg317m0E7mB_uXNuo5s-75" value="MT_SAP_REQ" style="rounded=0;whiteSpace=wrap;html=1;" parent="1" vertex="1">
          <mxGeometry x="370" y="825" width="130" height="25" as="geometry" />
        </mxCell>
        <mxCell id="OOg317m0E7mB_uXNuo5s-102" style="edgeStyle=orthogonalEdgeStyle;rounded=0;orthogonalLoop=1;jettySize=auto;html=1;exitX=0;exitY=0.5;exitDx=0;exitDy=0;entryX=1;entryY=0.5;entryDx=0;entryDy=0;" parent="1" source="OOg317m0E7mB_uXNuo5s-76" target="OOg317m0E7mB_uXNuo5s-64" edge="1">
          <mxGeometry relative="1" as="geometry">
            <Array as="points">
              <mxPoint x="320" y="880" />
              <mxPoint x="320" y="863" />
            </Array>
          </mxGeometry>
        </mxCell>
        <mxCell id="OOg317m0E7mB_uXNuo5s-76" value="MT_外围系统_RES" style="rounded=0;whiteSpace=wrap;html=1;" parent="1" vertex="1">
          <mxGeometry x="370" y="867.5" width="130" height="25" as="geometry" />
        </mxCell>
        <mxCell id="OOg317m0E7mB_uXNuo5s-77" value="SI_SAP_OUT" style="text;html=1;align=center;verticalAlign=middle;resizable=0;points=[];autosize=1;strokeColor=none;fillColor=none;" parent="1" vertex="1">
          <mxGeometry x="385" y="765" width="100" height="30" as="geometry" />
        </mxCell>
        <mxCell id="OOg317m0E7mB_uXNuo5s-78" value="" style="rounded=0;whiteSpace=wrap;html=1;" parent="1" vertex="1">
          <mxGeometry x="910" y="797.5" width="176" height="122.5" as="geometry" />
        </mxCell>
        <mxCell id="OOg317m0E7mB_uXNuo5s-79" value="SI_SRM_IN" style="text;html=1;align=center;verticalAlign=middle;resizable=0;points=[];autosize=1;strokeColor=none;fillColor=none;" parent="1" vertex="1">
          <mxGeometry x="953" y="767.5" width="90" height="30" as="geometry" />
        </mxCell>
        <mxCell id="OOg317m0E7mB_uXNuo5s-81" value="MT_SAP_REQ" style="rounded=0;whiteSpace=wrap;html=1;" parent="1" vertex="1">
          <mxGeometry x="933" y="825" width="130" height="25" as="geometry" />
        </mxCell>
        <mxCell id="OOg317m0E7mB_uXNuo5s-82" value="MT_外围系统_RES" style="rounded=0;whiteSpace=wrap;html=1;" parent="1" vertex="1">
          <mxGeometry x="933" y="868" width="130" height="25" as="geometry" />
        </mxCell>
        <mxCell id="OOg317m0E7mB_uXNuo5s-84" value="" style="rounded=0;whiteSpace=wrap;html=1;" parent="1" vertex="1">
          <mxGeometry x="572.5" y="802.5" width="290" height="120" as="geometry" />
        </mxCell>
        <mxCell id="OOg317m0E7mB_uXNuo5s-88" value="XML" style="text;html=1;align=center;verticalAlign=middle;whiteSpace=wrap;rounded=0;" parent="1" vertex="1">
          <mxGeometry x="1130" y="838" width="60" height="30" as="geometry" />
        </mxCell>
        <mxCell id="OOg317m0E7mB_uXNuo5s-89" value="JSON" style="text;html=1;align=center;verticalAlign=middle;resizable=0;points=[];autosize=1;strokeColor=none;fillColor=none;" parent="1" vertex="1">
          <mxGeometry x="1365" y="837.5" width="60" height="30" as="geometry" />
        </mxCell>
        <mxCell id="OOg317m0E7mB_uXNuo5s-94" value="MM字段映射" style="text;html=1;align=center;verticalAlign=middle;resizable=0;points=[];autosize=1;strokeColor=none;fillColor=none;" parent="1" vertex="1">
          <mxGeometry x="672.5" y="772.5" width="90" height="30" as="geometry" />
        </mxCell>
        <mxCell id="OOg317m0E7mB_uXNuo5s-97" value="MM_SAP_REQ" style="rounded=0;whiteSpace=wrap;html=1;" parent="1" vertex="1">
          <mxGeometry x="652.5" y="825" width="130" height="25" as="geometry" />
        </mxCell>
        <mxCell id="OOg317m0E7mB_uXNuo5s-98" value="MM_外围系统_RES" style="rounded=0;whiteSpace=wrap;html=1;" parent="1" vertex="1">
          <mxGeometry x="652.5" y="867.5" width="130" height="25" as="geometry" />
        </mxCell>
        <mxCell id="OOg317m0E7mB_uXNuo5s-99" style="edgeStyle=orthogonalEdgeStyle;rounded=0;orthogonalLoop=1;jettySize=auto;html=1;exitX=0;exitY=0.5;exitDx=0;exitDy=0;entryX=1;entryY=0.5;entryDx=0;entryDy=0;" parent="1" source="OOg317m0E7mB_uXNuo5s-69" target="OOg317m0E7mB_uXNuo5s-82" edge="1">
          <mxGeometry relative="1" as="geometry">
            <Array as="points">
              <mxPoint x="1140" y="865" />
              <mxPoint x="1140" y="881" />
            </Array>
          </mxGeometry>
        </mxCell>
        <mxCell id="OOg317m0E7mB_uXNuo5s-100" style="edgeStyle=orthogonalEdgeStyle;rounded=0;orthogonalLoop=1;jettySize=auto;html=1;exitX=0;exitY=0.5;exitDx=0;exitDy=0;entryX=1;entryY=0.5;entryDx=0;entryDy=0;" parent="1" source="OOg317m0E7mB_uXNuo5s-82" target="OOg317m0E7mB_uXNuo5s-98" edge="1">
          <mxGeometry relative="1" as="geometry" />
        </mxCell>
        <mxCell id="OOg317m0E7mB_uXNuo5s-101" style="edgeStyle=orthogonalEdgeStyle;rounded=0;orthogonalLoop=1;jettySize=auto;html=1;exitX=0;exitY=0.5;exitDx=0;exitDy=0;entryX=1;entryY=0.5;entryDx=0;entryDy=0;" parent="1" source="OOg317m0E7mB_uXNuo5s-98" target="OOg317m0E7mB_uXNuo5s-76" edge="1">
          <mxGeometry relative="1" as="geometry" />
        </mxCell>
        <mxCell id="OOg317m0E7mB_uXNuo5s-104" value="MM_SAP_REQ" style="rounded=0;whiteSpace=wrap;html=1;" parent="1" vertex="1">
          <mxGeometry x="640" y="275" width="130" height="25" as="geometry" />
        </mxCell>
        <mxCell id="OOg317m0E7mB_uXNuo5s-106" value="MM_外围系统_RES" style="rounded=0;whiteSpace=wrap;html=1;" parent="1" vertex="1">
          <mxGeometry x="640" y="320" width="130" height="25" as="geometry" />
        </mxCell>
        <mxCell id="OOg317m0E7mB_uXNuo5s-109" style="edgeStyle=orthogonalEdgeStyle;rounded=0;orthogonalLoop=1;jettySize=auto;html=1;exitX=1;exitY=0.5;exitDx=0;exitDy=0;entryX=0;entryY=0.5;entryDx=0;entryDy=0;" parent="1" source="OOg317m0E7mB_uXNuo5s-28" target="OOg317m0E7mB_uXNuo5s-104" edge="1">
          <mxGeometry relative="1" as="geometry" />
        </mxCell>
        <mxCell id="OOg317m0E7mB_uXNuo5s-110" style="edgeStyle=orthogonalEdgeStyle;rounded=0;orthogonalLoop=1;jettySize=auto;html=1;exitX=1;exitY=0.5;exitDx=0;exitDy=0;entryX=0;entryY=0.5;entryDx=0;entryDy=0;" parent="1" source="OOg317m0E7mB_uXNuo5s-104" target="OOg317m0E7mB_uXNuo5s-42" edge="1">
          <mxGeometry relative="1" as="geometry" />
        </mxCell>
      </root>
    </mxGraphModel>
  </diagram>
</mxfile>
